<svg xmlns="http://www.w3.org/2000/svg" viewBox="0 0 16.5 16.5"><title>clock</title><g id="Слой_2" data-name="Слой 2"><g id="Слой_1-2" data-name="Слой 1"><path d="M7.75,15.75a8.39,8.39,0,0,0,8-8c0-4.14-3.86-7-8-7a6.68,6.68,0,0,0-7,7C.75,11.89,3.61,15.75,7.75,15.75Z" style="fill:none;stroke:#000;stroke-linecap:round;stroke-linejoin:round;stroke-width:1.5px"/><path d="M7.75,8.75a1,1,0,0,0,1-1,1,1,0,0,0-1-1,1,1,0,0,0-1,1A1,1,0,0,0,7.75,8.75Z" style="fill:none;stroke:#000;stroke-linecap:round;stroke-linejoin:round;stroke-width:1.5px"/><path d="M7.75,6.75v-4" style="fill:none;stroke:#000;stroke-linecap:round;stroke-linejoin:round;stroke-width:1.5px"/><path d="M8.75,8.75l2,2" style="fill:none;stroke:#000;stroke-linecap:round;stroke-linejoin:round;stroke-width:1.5px"/></g></g></svg>