<svg xmlns="http://www.w3.org/2000/svg" width="164" height="70" viewBox="0 0 164 70"><defs><linearGradient id="xmipa" x1="150.82" x2="144.26" y1=".47" y2="37.68" gradientUnits="userSpaceOnUse"><stop offset="0" stop-color="#da007b"/><stop offset=".34" stop-color="#d7007b"/><stop offset=".51" stop-color="#cf037b"/><stop offset=".64" stop-color="#c2077c"/><stop offset=".76" stop-color="#af0d7d"/><stop offset=".86" stop-color="#97157f"/><stop offset=".95" stop-color="#791f80"/><stop offset="1" stop-color="#682582"/></linearGradient></defs><g><g><g><g><g><g><path fill="#28348a" d="M9.82 47.056c-7.107 0-10.9-4.84-9.55-12.908L3.498 16.05c.087-.437.348-.698.785-.698h5.495c.523 0 .784.349.697.829L7.117 34.932c-.654 3.794.872 5.714 3.707 5.714 2.922 0 4.971-1.788 5.626-5.408l3.314-19.188c.087-.437.348-.698.785-.698h5.494c.48 0 .741.349.698.829L23.34 35.76c-1.221 7.108-5.713 11.295-13.52 11.295z"/></g><g><path fill="#28348a" d="M26.436 46.533c-.523 0-.784-.35-.698-.83l3.576-19.928c.088-.35.262-.61.655-.785 2.747-1.047 6.017-1.745 8.852-1.745 6.585 0 9.55 4.187 8.46 10.38l-2.18 12.21c-.087.436-.349.698-.828.698h-5.016c-.48 0-.742-.35-.697-.83l2.18-12.733c.523-2.747-.436-4.012-2.748-4.012-1.045 0-2.136.218-2.79.523l-2.879 16.354c-.087.48-.348.698-.828.698z"/></g><g><path fill="#28348a" d="M60.626 17.533c.436-2.356-.96-4.1-3.183-4.1-2.007 0-3.49 1.265-3.838 3.184-.436 2.267.959 4.055 3.183 4.055 1.962 0 3.49-1.352 3.838-3.14zm-6.018 29c.48 0 .741-.262.828-.698l3.751-21.194c.087-.48-.175-.785-.698-.785H53.43c-.435 0-.74.218-.784.654l-3.751 21.194c-.087.48.174.829.654.829z"/></g><g><path fill="#28348a" d="M67.822 47.1c-3.62 0-6.455-.96-8.853-2.922-.393-.306-.393-.698-.131-1.047l2.486-3.401c.305-.393.654-.436 1.046-.175a9.317 9.317 0 0 0 5.67 1.876c2.093 0 3.139-.655 3.357-1.657.306-1.353-1.22-1.701-2.965-2.094-4.274-.872-7.675-3.445-6.716-8.155.916-4.404 4.58-6.28 9.856-6.28 3.009 0 5.32.655 7.675 2.006.436.263.48.655.174 1.047l-2.573 3.445c-.262.393-.61.436-1.046.218-1.352-.785-3.01-1.177-4.84-1.177-1.614 0-2.617.348-2.791 1.439-.262 1.308 1.133 1.7 3.226 2.18 3.358.742 7.544 2.835 6.629 7.937-.872 4.623-4.753 6.76-10.204 6.76z"/></g><g><path fill="#28348a" d="M88.929 29.917l-1.484 8.417c-.348 1.963.35 3.01 2.138 3.01h1.177c.523-.045.828.174.698.74l-.698 4.057c-.088.436-.305.697-.741.74-.655.132-1.483.218-2.224.218-4.841 0-7.938-2.921-6.804-9.288l3.27-18.708c.088-.436.35-.698.83-.698h4.273c.524 0 .786.305.742.785l-.262 5.19h3.488c.524 0 .785.348.699.828l-.699 4.012c-.087.48-.348.697-.828.697z"/></g><g><path fill="#28348a" d="M102.36 41.648c-1.92 0-2.965-.785-2.66-2.442.217-1.308 1.351-2.006 3.488-2.006.96 0 1.962.13 2.791.305l-.61 3.794c-.786.175-2.007.35-3.01.35zm-.83 5.451c3.359 0 6.586-.653 9.071-1.526.393-.13.568-.436.655-.828l1.962-11.034c1.177-6.541-1.875-10.466-7.806-10.466-3.533 0-6.803.785-8.896 2.05-.262.175-.262.48-.131.872l1.352 3.576c.174.48.523.567 1.003.349 1.308-.61 3.27-1.003 5.19-1.003 2.747 0 3.357 1.177 2.965 3.314l-.087.699a19.453 19.453 0 0 0-3.708-.35c-5.582 0-9.157 1.875-9.898 6.106-.873 4.753 2.224 8.241 8.329 8.241z"/></g><g><path fill="#28348a" d="M115.398 46.533c-.523 0-.785-.35-.698-.83l3.446-19.797c.087-.392.305-.655.654-.83 2.53-1.176 5.32-1.83 8.067-1.83 1.178 0 2.355.13 3.62.392.48.087.698.436.61.872l-.784 4.274c-.043.479-.393.697-.872.654a14.797 14.797 0 0 0-2.53-.218c-1.134 0-2.093.218-2.835.523l-2.834 16.092c-.087.436-.349.698-.785.698z"/></g></g></g></g><g><path fill="url(#xmipa)" d="M163.228 10.34a1.378 1.378 0 0 0-.927-2.114l-6.737-1.12a3.534 3.534 0 0 1-2.174-1.271L149.11.514a1.378 1.378 0 0 0-2.297.229l-3.148 6.06a3.535 3.535 0 0 1-1.88 1.675l-6.384 2.428a1.378 1.378 0 0 0-.492 2.255l4.792 4.866c.579.588.955 1.357.994 2.178.253 5.285-2.889 16.338-2.889 16.338s9.203-11.397 12.747-11.634a3.35 3.35 0 0 1 1.103.108l6.592 1.787c.96.26 1.871-.55 1.723-1.534l-1.016-6.754a3.53 3.53 0 0 1 .537-2.46z"/></g><g><g><g><path fill="#28348a" d="M68.78 57.71l1.897-.016c.605 0 1.003.12 1.192.361.19.24.235.697.135 1.368-.113.783-.3 1.299-.563 1.544-.263.247-.74.37-1.435.37h-1.73zm-1.36 9.755l.604-4.315c.672.1 1.388.151 2.15.151 1.477 0 2.523-.246 3.14-.739.615-.491 1.023-1.476 1.226-2.954.2-1.433.01-2.437-.572-3.013-.582-.577-1.651-.865-3.207-.865-1.813 0-3.235.05-4.264.151L64.87 67.465z"/></g><g><path fill="#28348a" d="M77.981 62.411s1.661-4.062 1.863-4.633h.374c.022.503.16 4.633.16 4.633zm3.05 5.054h2.554L82.26 56.603a.709.709 0 0 0-.26-.512.837.837 0 0 0-.563-.21h-2.416c-.46 0-.768.207-.925.621L73.23 67.465h2.669l1.242-3.022h3.505z"/></g><g><path fill="#28348a" d="M88.288 65.618c.851-1.589 1.601-3.856 2.25-6.8.079-.39.218-.671.42-.839.2-.167.481-.251.839-.251h1.36l-1.125 7.89zm7.807 0h-1.51l1.375-9.737h-4.934c-.785 0-1.425.201-1.923.604-.498.403-.826.98-.983 1.73a42.605 42.605 0 0 1-1.115 3.987 21.703 21.703 0 0 1-1.504 3.416h-.919L83.977 70h1.93l.555-2.535h7.282L93.577 70h1.914l.37-2.653z"/></g><g><path fill="#28348a" d="M106.672 67.465h-2.452l.957-6.649c.09-.626.224-1.236.403-1.83h-.1c-.392.762-.677 1.272-.857 1.528l-4.852 6.951h-2.635l1.629-11.584h2.467l-.923 6.564a12.35 12.35 0 0 1-.454 1.897h.118c.246-.537.548-1.063.907-1.578l4.818-6.883h2.602z"/></g><g><path fill="#28348a" d="M116.383 58.5c.23.515.232 1.538.009 3.073-.235 1.589-.55 2.66-.94 3.214-.392.554-1.03.83-1.914.83-.862 0-1.405-.262-1.629-.788-.224-.526-.23-1.544-.017-3.055.236-1.612.543-2.69.923-3.232.382-.543 1.02-.814 1.914-.814.873 0 1.425.257 1.654.772zm-5.473-1.553c-.823.856-1.39 2.398-1.704 4.626-.302 2.282-.117 3.871.554 4.767.672.896 1.913 1.343 3.727 1.343 1.768 0 3.064-.42 3.887-1.259.823-.84 1.385-2.39 1.687-4.65.314-2.25.129-3.83-.554-4.743-.683-.913-1.914-1.368-3.693-1.368-1.78 0-3.081.428-3.904 1.284z"/></g></g></g></g></g></svg>