<svg xmlns="http://www.w3.org/2000/svg" width="16" height="15" viewBox="0 0 16 15">
    <path fill="none" stroke="#000" stroke-linecap="round" stroke-linejoin="round" stroke-miterlimit="50" d="M.5 5.5a1 1 0 0 1 1-1h13a1 1 0 0 1 1 1v8a1 1 0 0 1-1 1h-13a1 1 0 0 1-1-1z" />
    <path fill="none" stroke="#000" stroke-linecap="round" stroke-linejoin="round" stroke-miterlimit="50" d="M1.5 2.5h13" />
    <path fill="none" stroke="#000" stroke-linecap="round" stroke-linejoin="round" stroke-miterlimit="50" d="M2.5.5h10" />
    <path fill="none" stroke="#000" stroke-linecap="round" stroke-linejoin="round" stroke-miterlimit="50" d="M2.5 10.5h3" />
    <path fill="none" stroke="#000" stroke-linecap="round" stroke-linejoin="round" stroke-miterlimit="50" d="M2.5 12.5h6" />
    <path fill="none" stroke="#000" stroke-linecap="round" stroke-linejoin="round" stroke-miterlimit="50" d="M10.5 6.5c0-.276-.276 0 0 0h2c.276 0 1-.276 1 0v2c0 .276-.724 1-1 1h-2c-.276 0 0-.724 0-1z" />
</svg>