<svg xmlns="http://www.w3.org/2000/svg" width="17" height="17" viewBox="0 0 17 17"><g><g><g><g><g><path fill="none" stroke="#000" stroke-linecap="round" stroke-linejoin="round" stroke-miterlimit="50" stroke-width="1.5" d="M10.5 15.5v0c1.458.929 3.777.223 5-1v0c.48-.48.48-1.52 0-2l-2-2c-.48-.48-1.52-.48-2 0v0c-.23.23-.674 0-1 0-.326 0-.77.23-1 0l-3-3c-.48-.48-.48-1.52 0-2v0c.23-.23 0-.674 0-1 0-.326.23-.77 0-1l-2-2c-.48-.48-1.52-.48-2 0v0c-1.223 1.223-1.928 3.542-1 5v0a33.695 33.695 0 0 0 9 9z"/></g></g></g></g></g></svg>