<svg xmlns="http://www.w3.org/2000/svg" xmlns:xlink="http://www.w3.org/1999/xlink" width="66.649" height="63.854" viewBox="0 0 66.649 63.854"><defs><linearGradient id="a" x1="0.5" x2="0.5" y2="1" gradientUnits="objectBoundingBox"><stop offset="0" stop-color="#682582"/><stop offset="1" stop-color="#da007b"/></linearGradient></defs><path d="M65.2,29.984a4.78,4.78,0,0,0-2.65-8.153L46.414,19.487a2.108,2.108,0,0,1-1.588-1.154L37.611,3.711a4.78,4.78,0,0,0-8.572,0L21.823,18.334a2.11,2.11,0,0,1-1.589,1.154L4.1,21.833a4.78,4.78,0,0,0-2.65,8.153L13.122,41.367a2.113,2.113,0,0,1,.609,1.868L10.976,59.306a4.679,4.679,0,0,0,1.042,3.876,4.83,4.83,0,0,0,5.892,1.162l14.432-7.588a2.16,2.16,0,0,1,1.964,0L48.74,64.344a4.73,4.73,0,0,0,2.223.557,4.793,4.793,0,0,0,3.667-1.719,4.677,4.677,0,0,0,1.042-3.876L52.917,43.235a2.112,2.112,0,0,1,.609-1.868Z" transform="translate(0.001 -1.047)" fill="url(#a)"/></svg>