<svg xmlns="http://www.w3.org/2000/svg" width="248" height="313" viewBox="0 0 248 313"><defs><linearGradient id="deyxa" x1="139.88" x2="83.73" y1="4.47" y2="322.93" gradientUnits="userSpaceOnUse"><stop offset="0" stop-color="#da007b"/><stop offset=".34" stop-color="#d7007b"/><stop offset=".51" stop-color="#cf037b"/><stop offset=".64" stop-color="#c2077c"/><stop offset=".76" stop-color="#af0d7d"/><stop offset=".86" stop-color="#97157f"/><stop offset=".95" stop-color="#791f80"/><stop offset="1" stop-color="#682582"/></linearGradient></defs><g><g><path fill="url(#deyxa)" d="M246.066 88.936c4.66-7.127.465-16.688-7.932-18.086l-57.655-9.59a30.244 30.244 0 0 1-18.602-10.875L125.235 4.848c-5.342-6.629-15.73-5.594-19.651 1.958L78.64 58.676A30.246 30.246 0 0 1 62.552 73.01L7.918 93.786c-7.955 3.027-10.181 13.23-4.212 19.295l41.011 41.649c4.951 5.029 8.168 11.613 8.504 18.635 2.165 45.229-24.722 139.823-24.722 139.823s78.763-97.537 109.088-99.568c3.156-.206 6.345.08 9.438.924l56.413 15.3c8.217 2.226 16.016-4.716 14.747-13.135l-8.694-57.8a30.207 30.207 0 0 1 4.593-21.051z"/></g></g></svg>